PathFileType	4	(X/Y/Z)	/Users/itak/Documents/Research/Walk-IL/dataset/trc/00453_00167.trc
DataRate	CameraRate	NumFrames	NumMarkers	Units	OrigDataRate	OrigDataStartFrame	OrigNumFrames
100.000000	100.000000	4	53	mm	100.000000	0	536
Frame#	Time	RPSI			LPSI			L3			STRN			T10			C7			CLAV			RBAK			LBAK			LSHO			LUPA			LAEL			LAOL			LWTS			LWPS			LFRA			LIFD			LHPS			LHTS			RSHO			RUPA			RAEL			RAOL			RWTS			RWPS			RFRA			RIFD			RHTS			RHPS			RBHD			LFHD			RFHD			LBHD			LHIP			RHIP			RASI			LASI			LKNE			LTHI			LANK			LTIP			LTOE			LMT1			LMT5			LHEE			RKNE			RTHI			RANK			RTIP			RTOE			RMT1			RMT5			RHEE			
		X1	Y1	Z1	X2	Y2	Z2	X3	Y3	Z3	X4	Y4	Z4	X5	Y5	Z5	X6	Y6	Z6	X7	Y7	Z7	X8	Y8	Z8	X9	Y9	Z9	X10	Y10	Z10	X11	Y11	Z11	X12	Y12	Z12	X13	Y13	Z13	X14	Y14	Z14	X15	Y15	Z15	X16	Y16	Z16	X17	Y17	Z17	X18	Y18	Z18	X19	Y19	Z19	X20	Y20	Z20	X21	Y21	Z21	X22	Y22	Z22	X23	Y23	Z23	X24	Y24	Z24	X25	Y25	Z25	X26	Y26	Z26	X27	Y27	Z27	X28	Y28	Z28	X29	Y29	Z29	X30	Y30	Z30	X31	Y31	Z31	X32	Y32	Z32	X33	Y33	Z33	X34	Y34	Z34	X35	Y35	Z35	X36	Y36	Z36	X37	Y37	Z37	X38	Y38	Z38	X39	Y39	Z39	X40	Y40	Z40	X41	Y41	Z41	X42	Y42	Z42	X43	Y43	Z43	X44	Y44	Z44	X45	Y45	Z45	X46	Y46	Z46	X47	Y47	Z47	X48	Y48	Z48	X49	Y49	Z49	X50	Y50	Z50	X51	Y51	Z51	X52	Y52	Z52	X53	Y53	Z53	

1	0	-2019.13671875	961.9013061523438	-602.8247680664062	-1944.013793945312	965.5372924804688	-723.0487670898438	-1977.176513671875	1060.30322265625	-643.29296875	-1735.152221679688	1256.73486328125	-518.4443359375	-1988.152587890625	1184.358154296875	-655.2221069335938	-1936.898559570312	1453.317138671875	-611.2277221679688	-1765.06005859375	1370.736694335938	-539.651123046875	-2037.070556640625	1332.790161132812	-560.220947265625	-1922.385986328125	1405.626342773438	-713.2470092773438	-1794.400756835938	1429.776245117188	-739.8394165039062	-1758.781005859375	1314.364013671875	-833.1331176757812	-1713.030395507812	1105.293579101562	-867.4800415039062	-1810.360595703125	1081.500610351562	-843.2833251953125	-1639.635986328125	914.8787231445312	-794.1328735351562	-1655.49169921875	894.2369995117188	-864.7998046875	-1680.752685546875	1021.091735839844	-867.4857177734375	-1604.250854492188	751.4588012695312	-787.1736450195312	-1635.994384765625	815.0521850585938	-857.823486328125	-1604.313598632812	831.9478759765625	-792.9202270507812	-1953.311279296875	1421.44677734375	-437.7008666992188	-2005.501220703125	1358.317749023438	-381.9358215332031	-2025.39013671875	1071.61962890625	-331.7926635742188	-2053.80859375	1055.1181640625	-391.8124084472656	-1907.376953125	875.3641357421875	-325.9136047363281	-1991.629272460938	855.5052490234375	-305.3964538574219	-2024.838256835938	1013.463928222656	-321.6600646972656	-1911.527221679688	718.942626953125	-309.2043151855469	-1893.4609375	776.77197265625	-308.4283752441406	-1970.003173828125	769.6937866210938	-299.7913208007812	-1895.8291015625	1651.638793945312	-497.1167297363281	-1703.639526367188	1662.929809570312	-575.6647338867188	-1763.461547851562	1666.137573242188	-458.9078063964844	-1829.752807617188	1652.648193359375	-662.1510620117188	-1767.09228515625	866.5897827148438	-751.068359375	-1996.166870117188	860.3167724609375	-425.9187316894531	-1874.399536132812	903.045654296875	-421.5768127441406	-1723.4501953125	903.7770385742188	-631.56982421875	-1742.713012695312	444.2899780273438	-711.83447265625	-1721.431396484375	598.48828125	-720.8899536132812	-1847.375610351562	33.7360954284668	-776.8746948242188	-1765.30126953125	290.8174743652344	-741.8211669921875	-1688.233276367188	49.12440872192383	-600.9707641601562	-1764.4306640625	57.15225219726562	-613.3250732421875	-1708.05224609375	45.05381393432617	-714.0170288085938	-1921.044067382812	36.88076400756836	-756.989990234375	-1938.7333984375	469.2291870117188	-421.7026062011719	-1962.689453125	728.26806640625	-390.283447265625	-2004.688720703125	42.04074859619141	-465.5359191894531	-1956.361938476562	324.37451171875	-417.5679626464844	-1793.123291015625	49.3051643371582	-399.6154174804688	-1831.50634765625	56.94281387329102	-459.8984985351562	-1900.009765625	47.62045288085938	-376.1228637695312	-2035.687744140625	34.83424758911133	-540.1016845703125	
2	0.01	-2019.010986328125	961.8485717773438	-602.89501953125	-1943.990478515625	965.6820068359375	-723.2103271484375	-1977.076049804688	1060.303344726562	-643.387939453125	-1735.073852539062	1256.712158203125	-518.40771484375	-1988.011596679688	1184.349731445312	-655.3088989257812	-1936.802490234375	1453.297607421875	-611.2825927734375	-1765.00390625	1370.712890625	-539.6432495117188	-2037.0078125	1332.79052734375	-560.328857421875	-1922.23095703125	1405.61767578125	-713.2796020507812	-1794.241943359375	1429.745239257812	-739.8569946289062	-1758.65234375	1314.3515625	-833.1392211914062	-1713.012939453125	1105.21630859375	-867.47900390625	-1810.34130859375	1081.469482421875	-843.2692260742188	-1639.957153320312	914.6132202148438	-794.2947387695312	-1655.808349609375	894.0797729492188	-864.9741821289062	-1680.865966796875	1020.975341796875	-867.5853271484375	-1604.844604492188	751.1118774414062	-787.4801025390625	-1636.384399414062	814.7893676757812	-858.0628051757812	-1604.766723632812	831.6649780273438	-793.176025390625	-1953.309204101562	1421.439697265625	-437.7915954589844	-2005.522338867188	1358.314575195312	-382.0252075195312	-2025.331909179688	1071.640747070312	-331.7393188476562	-2053.78173828125	1055.082763671875	-391.7832336425781	-1907.122680664062	875.5361938476562	-325.7525329589844	-1991.34912109375	855.5863037109375	-305.2050476074219	-2024.746948242188	1013.513305664062	-321.5870056152344	-1910.592407226562	718.824951171875	-309.4410400390625	-1893.024047851562	776.9560546875	-308.1427001953125	-1969.581787109375	769.8046264648438	-299.5001831054688	-1895.862060546875	1651.619018554688	-497.1673583984375	-1703.654296875	1663.006469726562	-575.6461791992188	-1763.54296875	1666.173217773438	-458.9183959960938	-1829.730712890625	1652.621215820312	-662.18212890625	-1766.860107421875	866.5646362304688	-750.9992065429688	-1996.139282226562	860.3206176757812	-425.9814147949219	-1874.388305664062	903.0357666015625	-421.5964965820312	-1723.314819335938	903.7496948242188	-631.4901733398438	-1742.671997070312	444.2610473632812	-711.7845458984375	-1721.287109375	598.4769897460938	-720.8051147460938	-1847.375244140625	33.73222732543945	-776.8780517578125	-1765.232055664062	290.7920227050781	-741.7916259765625	-1688.207885742188	49.1199836730957	-600.9473876953125	-1764.446899414062	57.12842559814453	-613.3084106445312	-1708.054931640625	45.06330490112305	-713.9929809570312	-1921.039916992188	36.87257766723633	-757.0014038085938	-1938.69189453125	469.216552734375	-421.7341613769531	-1962.6884765625	728.2752075195312	-390.3208618164062	-2004.689208984375	42.04235076904297	-465.53662109375	-1956.331176757812	324.3630676269531	-417.59130859375	-1793.123046875	49.30470275878906	-399.6173095703125	-1831.506225585938	56.9398193359375	-459.9048767089844	-1900.012573242188	47.61946105957031	-376.1314086914062	-2035.744140625	34.88320922851562	-540.1240234375	
3	0.02	-2018.8466796875	961.7943115234375	-602.984619140625	-1943.94140625	965.8532104492188	-723.4037475585938	-1976.940551757812	1060.308837890625	-643.5098266601562	-1734.965698242188	1256.68603515625	-518.3544921875	-1987.817626953125	1184.33349609375	-655.4146728515625	-1936.671142578125	1453.275634765625	-611.3518676757812	-1764.9248046875	1370.6826171875	-539.63232421875	-2036.918701171875	1332.792846679688	-560.4705810546875	-1922.017578125	1405.6083984375	-713.3219604492188	-1794.031127929688	1429.704345703125	-739.874267578125	-1758.4755859375	1314.337280273438	-833.1426391601562	-1712.988403320312	1105.118041992188	-867.4754638671875	-1810.324462890625	1081.441772460938	-843.2537231445312	-1640.372802734375	914.2598876953125	-794.5152587890625	-1656.228637695312	893.8711547851562	-865.2111206054688	-1681.020385742188	1020.8251953125	-867.7100830078125	-1605.645263671875	750.654541015625	-787.8956909179688	-1636.9208984375	814.4547119140625	-858.3901977539062	-1605.3623046875	831.2808227539062	-793.5198974609375	-1953.2978515625	1421.434326171875	-437.9028625488281	-2005.540649414062	1358.314575195312	-382.134033203125	-2025.255004882812	1071.673461914062	-331.6636962890625	-2053.74169921875	1055.040649414062	-391.73388671875	-1906.796875	875.7595825195312	-325.5256958007812	-1990.990112304688	855.6975708007812	-304.9440307617188	-2024.62646484375	1013.580993652344	-321.4858093261719	-1909.2626953125	718.71923828125	-309.7913513183594	-1892.495361328125	777.1961669921875	-307.7641296386719	-1969.051025390625	769.9522094726562	-299.1175842285156	-1895.895629882812	1651.5927734375	-497.2279052734375	-1703.66943359375	1663.1015625	-575.618408203125	-1763.635864257812	1666.218017578125	-458.9285278320312	-1829.69189453125	1652.590698242188	-662.2135620117188	-1766.567749023438	866.5320434570312	-750.9202880859375	-1996.098876953125	860.3294677734375	-426.0634460449219	-1874.370361328125	903.023193359375	-421.6246032714844	-1723.138549804688	903.7147216796875	-631.3935546875	-1742.616333007812	444.2252502441406	-711.7164916992188	-1721.10400390625	598.4622802734375	-720.696533203125	-1847.373901367188	33.72806167602539	-776.8812866210938	-1765.140991210938	290.7650451660156	-741.7503051757812	-1688.17138671875	49.11518478393555	-600.9159545898438	-1764.467651367188	57.09685516357422	-613.2860107421875	-1708.05908203125	45.07574462890625	-713.9642944335938	-1921.036376953125	36.86304092407227	-757.0159301757812	-1938.642578125	469.2022399902344	-421.7812805175781	-1962.688110351562	728.2879638671875	-390.3721618652344	-2004.690063476562	42.04378890991211	-465.5373840332031	-1956.2958984375	324.3497619628906	-417.6270446777344	-1793.122802734375	49.30476760864258	-399.6195373535156	-1831.505493164062	56.93582916259766	-459.9139099121094	-1900.0146484375	47.61850357055664	-376.143798828125	-2035.8017578125	34.93051147460938	-540.1471557617188	
4	0.03	-2018.649536132812	961.74755859375	-603.0901489257812	-1943.85888671875	966.0375366210938	-723.614501953125	-1976.771362304688	1060.322021484375	-643.6536254882812	-1734.828735351562	1256.658935546875	-518.28369140625	-1987.57177734375	1184.307983398438	-655.532470703125	-1936.504150390625	1453.253051757812	-611.431884765625	-1764.8212890625	1370.647216796875	-539.617919921875	-2036.801879882812	1332.797973632812	-560.6419067382812	-1921.747436523438	1405.6005859375	-713.3729248046875	-1793.771850585938	1429.654907226562	-739.8878784179688	-1758.251708984375	1314.322387695312	-833.1404418945312	-1712.956787109375	1105.003540039062	-867.4682006835938	-1810.315795898438	1081.426513671875	-843.2392578125	-1640.868530273438	913.8262939453125	-794.79296875	-1656.744384765625	893.615966796875	-865.5090942382812	-1681.214721679688	1020.646301269531	-867.8535766601562	-1606.638916015625	750.0982666015625	-788.4156494140625	-1637.603393554688	814.0626220703125	-858.804931640625	-1606.0849609375	830.80029296875	-793.9472045898438	-1953.2724609375	1421.43310546875	-438.0272521972656	-2005.550659179688	1358.321044921875	-382.2549438476562	-2025.161010742188	1071.719848632812	-331.5647888183594	-2053.686279296875	1054.994506835938	-391.6598815917969	-1906.412353515625	876.0270385742188	-325.2311096191406	-1990.56689453125	855.8382568359375	-304.6149597167969	-2024.479370117188	1013.666870117188	-321.3558044433594	-1907.537109375	718.6524047851562	-310.2559204101562	-1891.909301757812	777.4853515625	-307.2995910644531	-1968.43603515625	770.1331176757812	-298.651611328125	-1895.923706054688	1651.561157226562	-497.2935180664062	-1703.681762695312	1663.209716796875	-575.580322265625	-1763.7294921875	1666.269897460938	-458.9356689453125	-1829.6318359375	1652.559936523438	-662.2396850585938	-1766.2294921875	866.4931030273438	-750.8396606445312	-1996.04443359375	860.34521484375	-426.1625061035156	-1874.344116210938	903.00830078125	-421.66162109375	-1722.926513671875	903.673583984375	-631.2866821289062	-1742.547973632812	444.1845092773438	-711.6318359375	-1720.89111328125	598.4442138671875	-720.5689697265625	-1847.371459960938	33.72409820556641	-776.8836669921875	-1765.03125	290.7402648925781	-741.6974487304688	-1688.123901367188	49.11057281494141	-600.8772583007812	-1764.491333007812	57.05866241455078	-613.2586059570312	-1708.065185546875	45.09061813354492	-713.9334106445312	-1921.034545898438	36.85313415527344	-757.0328979492188	-1938.589233398438	469.1876525878906	-421.8454284667969	-1962.688598632812	728.3074951171875	-390.4371032714844	-2004.691162109375	42.0446891784668	-465.5381164550781	-1956.259765625	324.336181640625	-417.6766662597656	-1793.122802734375	49.30576705932617	-399.6219787597656	-1831.504150390625	56.93098449707031	-459.9255676269531	-1900.015625	47.61771011352539	-376.1601867675781	-2035.852783203125	34.96826934814453	-540.1680908203125	
